<?xml version="1.0" standalone="no"?>
<!DOCTYPE svg PUBLIC "-//W3C//DTD SVG 20010904//EN"
 "http://www.w3.org/TR/2001/REC-SVG-20010904/DTD/svg10.dtd">
<svg version="1.0" xmlns="http://www.w3.org/2000/svg"
 width="2000.000000pt" height="1500.000000pt" viewBox="0 0 2000.000000 1500.000000"
 preserveAspectRatio="xMidYMid meet">

<g transform="translate(0.000000,1500.000000) scale(0.100000,-0.100000)"
fill="#000000" stroke="none">
<path d="M12125 10770 c-753 -754 -1374 -1369 -1378 -1367 -5 1 -270 264 -591
584 l-582 582 -545 -545 c-299 -299 -547 -544 -550 -544 -3 0 -11 24 -18 53
-6 29 -27 83 -46 121 -121 240 -345 379 -585 362 -179 -13 -303 -68 -425 -190
-91 -90 -133 -162 -162 -281 -10 -38 -19 -72 -21 -75 -1 -2 -329 322 -727 720
l-725 725 -1065 -1065 c-586 -586 -1065 -1070 -1065 -1076 0 -15 56 -67 68
-63 6 2 117 108 248 235 259 249 464 442 643 604 l113 102 267 -266 266 -266
268 267 267 268 267 -268 267 -268 267 267 c231 231 269 265 285 256 11 -6 98
-91 195 -189 149 -151 177 -184 182 -215 3 -20 41 -114 84 -207 l78 -171 58 0
c31 0 57 2 57 3 0 2 -36 80 -79 173 -93 198 -102 230 -102 334 0 152 48 269
151 371 98 96 218 149 342 149 280 0 508 -217 525 -500 7 -106 -15 -177 -117
-380 -38 -77 -70 -142 -70 -145 0 -3 26 -5 59 -5 l58 0 50 108 c59 127 109
251 123 307 21 82 11 89 272 -172 l243 -243 65 0 65 0 235 235 235 235 235
-235 235 -235 65 0 65 0 235 235 235 235 235 -235 235 -235 90 0 90 0 -225
225 -226 224 593 593 593 593 367 -368 368 -367 372 372 373 373 375 -375 375
-375 368 368 367 367 620 -620 620 -620 40 40 40 40 -1405 1405 c-773 773
-1407 1405 -1410 1405 -3 0 -622 -617 -1375 -1370z m2450 -580 l-341 -341
-372 373 -372 373 -375 -375 -375 -375 -342 343 -343 342 715 715 715 715 715
-715 715 -715 -340 -340z m-8295 45 l505 -505 -243 -242 -242 -243 -268 268
-267 267 -268 -267 -267 -268 -240 240 -240 240 507 507 c280 280 510 508 513
508 3 0 232 -227 510 -505z m3790 -360 l505 -505 -243 -242 -242 -243 -264
264 -265 264 -35 -31 c-19 -17 -139 -135 -266 -263 l-230 -233 -242 242 -242
242 504 505 c278 278 507 505 510 505 3 0 232 -227 510 -505z"/>
<path d="M7750 9721 c-100 -21 -182 -89 -228 -190 -33 -70 -36 -178 -9 -259
25 -69 99 -150 174 -187 52 -26 68 -29 153 -29 83 0 102 3 151 27 211 102 254
389 83 547 -25 23 -69 53 -98 66 -56 26 -167 38 -226 25z m161 -126 c154 -55
201 -249 90 -368 -90 -98 -252 -95 -336 5 -40 47 -55 89 -55 150 1 158 152
265 301 213z"/>
<path d="M8325 8387 c-71 -71 -84 -181 -85 -690 0 -326 3 -412 16 -475 25
-119 52 -152 112 -137 36 9 69 41 82 80 l10 31 48 -46 c53 -51 102 -70 186
-70 143 0 249 118 306 340 28 106 36 262 21 356 -15 85 -62 176 -115 218 -31
26 -47 31 -106 34 -62 4 -74 1 -130 -29 -34 -18 -81 -55 -106 -82 l-44 -49 0
113 c-1 130 -13 239 -36 318 -18 61 -69 121 -104 121 -12 0 -37 -15 -55 -33z
m401 -643 c38 -10 59 -61 57 -144 -1 -86 -22 -153 -60 -192 -47 -49 -151 -34
-204 29 -25 29 -25 33 -17 109 9 74 12 82 51 121 41 43 108 83 137 83 8 0 24
-3 36 -6z"/>
<path d="M6470 8387 c-103 -24 -207 -94 -274 -186 -120 -163 -199 -443 -182
-639 9 -96 48 -230 93 -314 46 -88 132 -170 204 -193 69 -23 177 -17 238 14
118 61 214 199 266 382 14 50 19 57 46 63 42 8 85 55 99 106 14 53 7 85 -25
106 -88 57 -336 59 -447 3 -49 -25 -68 -55 -68 -107 0 -54 38 -97 94 -107 32
-6 36 -10 30 -29 -20 -69 -69 -115 -131 -123 -34 -4 -45 -1 -72 23 -78 69 -80
309 -6 529 47 141 103 205 179 205 62 0 68 -13 70 -131 1 -96 2 -102 28 -124
36 -31 88 -39 133 -21 28 12 41 27 61 70 21 46 25 70 26 158 1 86 -2 111 -21
153 -58 131 -194 195 -341 162z"/>
<path d="M10775 8364 c-179 -27 -350 -90 -405 -149 -26 -27 -40 -82 -29 -112
4 -11 29 -31 56 -44 40 -20 64 -24 140 -24 l91 0 5 -425 c3 -317 7 -434 17
-462 34 -97 116 -136 177 -84 61 52 67 82 64 361 -2 231 13 555 28 612 5 19
21 29 74 48 137 48 217 115 217 183 0 47 -22 80 -66 98 -43 18 -246 17 -369
-2z"/>
<path d="M7159 8345 c-98 -53 -161 -297 -162 -625 -1 -349 52 -600 138 -656
37 -24 89 -11 120 30 43 57 49 121 35 412 -10 206 -10 302 0 450 6 103 9 217
5 253 -14 126 -63 176 -136 136z"/>
<path d="M5177 8205 c-399 -49 -831 -208 -1144 -421 -152 -104 -378 -289 -389
-318 -3 -7 11 -29 30 -50 l34 -38 68 63 c480 435 1065 669 1677 669 l158 0 -3
53 -3 52 -160 2 c-88 0 -208 -5 -268 -12z"/>
<path d="M13774 8140 c-149 -30 -271 -155 -290 -298 -9 -71 8 -123 67 -207 98
-138 109 -158 109 -195 0 -61 -21 -78 -151 -124 -68 -24 -102 -65 -102 -121 0
-165 285 -149 446 25 77 83 111 155 111 239 1 84 -26 134 -106 197 -125 98
-118 181 22 264 114 68 137 119 83 180 -40 44 -101 57 -189 40z"/>
<path d="M7721 8080 c-312 -64 -422 -668 -171 -935 69 -72 126 -99 210 -99
208 0 350 200 367 514 6 127 -11 222 -60 325 -73 153 -200 224 -346 195z m121
-320 c61 -122 50 -376 -19 -452 -25 -28 -68 -23 -91 10 -83 117 -80 387 6 485
10 12 27 17 46 15 26 -3 35 -11 58 -58z"/>
<path d="M11383 8080 c-131 -27 -245 -163 -288 -343 -54 -222 -11 -452 109
-584 85 -95 163 -123 274 -102 133 25 230 136 284 326 33 115 33 317 -1 423
-28 92 -59 146 -114 201 -69 70 -168 99 -264 79z m107 -292 c36 -58 53 -137
53 -239 -1 -151 -42 -259 -99 -259 -113 0 -153 377 -53 504 30 38 74 35 99 -6z"/>
<path d="M12033 8057 c-48 -27 -98 -119 -134 -247 -19 -71 -23 -109 -24 -230
0 -159 10 -219 56 -316 33 -70 98 -136 167 -167 38 -17 67 -22 147 -22 94 0
105 2 167 33 146 72 218 230 218 482 0 325 -125 537 -245 417 -46 -46 -51 -84
-31 -251 20 -170 20 -223 2 -300 -19 -78 -56 -117 -114 -118 -23 0 -49 5 -58
13 -51 42 -64 149 -39 324 35 255 30 322 -27 370 -33 28 -52 30 -85 12z"/>
<path d="M9240 8047 c-128 -65 -161 -514 -54 -729 55 -110 131 -160 240 -160
78 1 134 29 188 95 19 23 44 53 56 67 l21 25 -6 -80 c-19 -252 -79 -405 -171
-435 -31 -10 -46 -8 -118 14 -64 21 -89 25 -108 17 -70 -26 -90 -103 -42 -160
34 -41 136 -89 215 -103 187 -31 329 82 407 322 108 331 88 915 -36 1070 -36
44 -90 60 -125 37 -48 -31 -60 -78 -68 -264 -6 -146 -10 -178 -28 -216 -25
-52 -59 -72 -117 -71 -85 2 -104 43 -104 226 0 208 -28 320 -86 346 -31 15
-33 15 -64 -1z"/>
<path d="M12822 8029 c-18 -12 -43 -40 -55 -63 -21 -40 -22 -49 -19 -331 2
-313 12 -424 44 -497 34 -79 91 -99 146 -53 52 44 64 90 73 300 10 206 14 228
59 298 52 82 112 103 200 72 58 -20 99 -19 138 5 39 24 56 62 47 110 -18 94
-98 150 -215 150 -85 0 -135 -24 -191 -89 -47 -54 -59 -61 -59 -33 0 39 -24
97 -50 124 -34 34 -72 36 -118 7z"/>
<path d="M14390 7522 l0 -57 68 -24 c601 -214 1248 -619 1805 -1130 l27 -25
35 34 35 34 -67 69 c-286 291 -756 629 -1193 860 -195 103 -652 297 -699 297
-7 0 -11 -23 -11 -58z"/>
<path d="M14577 6312 c-16 -18 -14 -23 45 -99 35 -44 72 -93 83 -108 19 -26
22 -27 43 -14 12 8 22 18 22 23 0 5 -24 39 -53 75 -30 36 -66 83 -82 104 -31
42 -36 44 -58 19z"/>
<path d="M7977 6144 c-7 -7 42 -83 67 -103 9 -8 16 -17 16 -22 0 -5 -797 -9
-1853 -9 -1841 0 -1854 0 -1938 -21 -46 -11 -133 -45 -194 -74 -215 -104 -353
-257 -400 -443 -13 -51 -15 -185 -13 -983 l3 -924 24 -44 c37 -71 114 -145
181 -175 76 -34 135 -44 326 -52 l153 -7 7 -31 c12 -59 65 -155 116 -211 92
-101 270 -183 375 -172 74 7 235 60 298 98 32 19 79 58 106 87 48 53 129 198
129 233 0 19 40 19 1708 17 l1707 -3 49 -98 c60 -120 130 -196 231 -249 292
-153 622 -36 746 265 l25 62 325 6 c246 5 335 10 369 21 137 45 234 119 280
213 l25 50 3 917 c3 1021 5 988 -65 1120 -19 38 -65 100 -101 139 -109 117
-212 181 -375 231 -72 22 -75 22 -1106 28 l-1034 5 -61 68 c-50 55 -66 67 -92
67 -17 0 -33 -3 -37 -6z m2268 -271 c131 -37 252 -102 340 -185 70 -65 135
-154 135 -185 0 -10 -698 -13 -3455 -13 -2451 0 -3455 3 -3455 11 0 26 61 110
130 179 114 114 249 176 449 205 68 10 688 13 2931 11 l2845 -1 80 -22z m520
-450 c4 -21 9 -46 12 -55 4 -17 -18 -18 -366 -18 l-371 0 0 -675 0 -675 360 0
360 0 0 -187 c0 -107 -5 -205 -11 -228 -16 -56 -89 -126 -164 -156 -58 -23
-69 -24 -392 -27 l-333 -3 0 41 c0 22 -12 78 -27 123 -24 74 -33 89 -97 153
-143 144 -324 189 -514 129 -181 -57 -311 -193 -360 -377 l-17 -63 -1724 0
-1724 0 -13 54 c-38 147 -160 299 -290 362 -64 31 -78 34 -184 37 -183 6 -311
-39 -416 -145 -65 -66 -125 -184 -130 -255 -1 -28 -5 -52 -7 -54 -2 -2 -44 -7
-93 -10 -167 -12 -316 26 -392 99 -69 66 -67 52 -70 480 l-3 387 270 0 271 0
-2 493 -3 492 -269 3 -268 2 6 38 c4 20 9 45 12 55 5 16 179 17 3474 17 l3469
0 6 -37z m-6520 -578 l0 -420 -235 0 -235 0 -3 410 c-1 225 0 416 3 423 3 10
56 12 237 10 l233 -3 0 -420z m6515 -180 l0 -605 -327 2 -328 3 -3 570 c-2
314 0 585 3 603 l6 32 324 0 325 0 0 -605z m-5805 -920 c32 -9 81 -28 109 -43
62 -33 152 -121 190 -186 26 -45 28 -54 24 -135 -7 -138 -69 -245 -186 -320
-199 -126 -481 -45 -580 167 -24 50 -27 70 -27 157 0 82 4 109 22 147 43 93
164 183 288 214 68 17 91 17 160 -1z m4541 -24 c67 -21 146 -82 189 -147 98
-144 70 -326 -72 -471 -54 -55 -146 -107 -212 -118 -46 -8 -168 17 -228 46
-64 31 -148 113 -177 172 -48 98 -51 230 -6 322 28 57 130 152 197 182 87 40
207 45 309 14z"/>
<path d="M4390 4885 l0 -445 525 0 525 0 0 445 0 445 -525 0 -525 0 0 -445z
m990 0 l0 -385 -460 0 -460 0 0 385 0 385 460 0 460 0 0 -385z"/>
<path d="M5530 4885 l0 -445 525 0 525 0 0 445 0 445 -525 0 -525 0 0 -445z
m988 3 l-3 -383 -460 0 -460 0 -3 383 -2 382 465 0 465 0 -2 -382z"/>
<path d="M6650 4885 l0 -445 525 0 525 0 0 445 0 445 -525 0 -525 0 0 -445z
m1000 0 l0 -385 -460 0 -460 0 0 385 0 385 460 0 460 0 0 -385z"/>
<path d="M7770 4885 l0 -445 525 0 525 0 0 445 0 445 -525 0 -525 0 0 -445z
m1000 0 l0 -385 -460 0 -460 1 0 384 0 385 460 0 460 0 0 -385z"/>
<path d="M8910 4885 l0 -445 525 0 525 0 0 445 0 445 -525 0 -525 0 0 -445z
m985 353 c3 -18 4 -190 3 -383 l-3 -350 -460 0 -460 0 -3 383 -2 382 459 0
460 0 6 -32z"/>
<path d="M11268 6138 c9 -9 15 -9 24 0 9 9 7 12 -12 12 -19 0 -21 -3 -12 -12z"/>
<path d="M10994 5908 c-33 -29 -77 -68 -98 -86 l-37 -32 19 -25 20 -25 58 45
c33 24 79 63 104 84 l45 40 -26 26 -25 26 -60 -53z"/>
<path d="M14900 5843 c-8 -2 -20 -6 -27 -8 -8 -3 -2 -33 21 -102 51 -149 54
-155 90 -151 21 2 30 8 28 18 -8 37 -85 250 -91 249 -3 0 -13 -3 -21 -6z"/>
<path d="M15000 5145 l0 -145 30 0 30 0 0 145 0 145 -30 0 -30 0 0 -145z"/>
<path d="M14917 4627 c-54 -152 -55 -160 -18 -173 l30 -12 25 72 c33 90 66
199 62 203 -1 2 -16 5 -32 9 -29 5 -29 5 -67 -99z"/>
<path d="M14597 4396 c-99 -37 -157 -124 -157 -235 0 -155 99 -250 260 -250
80 -1 132 21 182 77 102 113 67 309 -68 388 -55 33 -158 42 -217 20z m145 -56
c81 -23 131 -91 131 -180 0 -63 -19 -106 -62 -143 -93 -78 -239 -50 -290 55
-50 104 -2 225 106 263 47 17 67 18 115 5z"/>
</g>
</svg>
